<svg width="83" height="133" viewBox="0 0 83 133" fill="none" xmlns="http://www.w3.org/2000/svg">
<mask id="path-1-outside-1_8_97" maskUnits="userSpaceOnUse" x="0" y="0" width="83" height="133" fill="black">
<rect fill="white" width="83" height="133"/>
<path fill-rule="evenodd" clip-rule="evenodd" d="M28.88 54.5556L24.4824 50.1581L19.2443 44.9201L14 39.676V19.96L51.696 15L56.9184 20.2585L62.1346 25.5108L67.3448 30.7571L68.5827 38.1841L67.3448 50.5625V118.396H44.5686L39.3451 113.201L34.1156 107.999L28.88 102.792V54.5556Z"/>
</mask>
<path fill-rule="evenodd" clip-rule="evenodd" d="M28.88 54.5556L24.4824 50.1581L19.2443 44.9201L14 39.676V19.96L51.696 15L56.9184 20.2585L62.1346 25.5108L67.3448 30.7571L68.5827 38.1841L67.3448 50.5625V118.396H44.5686L39.3451 113.201L34.1156 107.999L28.88 102.792V54.5556Z" fill="url(#paint0_linear_8_97)"/>
<path d="M24.4824 50.1581L14.5831 60.0578L14.5831 60.0578L24.4824 50.1581ZM28.88 54.5556H42.88V48.7565L38.7794 44.656L28.88 54.5556ZM19.2443 44.9201L29.1436 35.0205L29.1436 35.0205L19.2443 44.9201ZM14 39.676H0V45.4751L4.10064 49.5756L14 39.676ZM14 19.96L12.1736 6.07963L0 7.68143V19.96H14ZM51.696 15L61.6296 5.13468L56.7438 0.215145L49.8696 1.11964L51.696 15ZM56.9184 20.2585L66.8519 10.3932L66.8519 10.3931L56.9184 20.2585ZM62.1346 25.5108L52.2011 35.3761L52.2011 35.3761L62.1346 25.5108ZM67.3448 30.7571L81.1544 28.4555L80.4212 24.0563L77.2784 20.8918L67.3448 30.7571ZM68.5827 38.1841L82.5132 39.5772L82.6987 37.7218L82.3922 35.8825L68.5827 38.1841ZM67.3448 50.5625L53.4143 49.1695L53.3448 49.8642V50.5625H67.3448ZM67.3448 118.396V132.396H81.3448V118.396H67.3448ZM44.5686 118.396L34.6959 128.322L38.7917 132.396H44.5686V118.396ZM39.3451 113.201L29.4724 123.127L29.4724 123.127L39.3451 113.201ZM34.1156 107.999L43.9883 98.0732L43.9883 98.0732L34.1156 107.999ZM28.88 102.792H14.88V108.613L19.0073 112.718L28.88 102.792ZM14.5831 60.0578L18.9806 64.4552L38.7794 44.656L34.3818 40.2585L14.5831 60.0578ZM9.3449 54.8197L14.5831 60.0578L34.3818 40.2585L29.1436 35.0205L9.3449 54.8197ZM4.10064 49.5756L9.3449 54.8197L29.1436 35.0205L23.8994 29.7764L4.10064 49.5756ZM0 19.96V39.676H28V19.96H0ZM49.8696 1.11964L12.1736 6.07963L15.8264 33.8404L53.5224 28.8804L49.8696 1.11964ZM66.8519 10.3931L61.6296 5.13468L41.7625 24.8653L46.9848 30.1238L66.8519 10.3931ZM72.0682 15.6455L66.8519 10.3932L46.9848 30.1238L52.2011 35.3761L72.0682 15.6455ZM77.2784 20.8918L72.0682 15.6455L52.2011 35.3761L57.4113 40.6224L77.2784 20.8918ZM82.3922 35.8825L81.1544 28.4555L53.5353 33.0586L54.7732 40.4857L82.3922 35.8825ZM81.2754 51.9555L82.5132 39.5772L54.6522 36.7911L53.4143 49.1695L81.2754 51.9555ZM81.3448 118.396V50.5625H53.3448V118.396H81.3448ZM44.5686 132.396H67.3448V104.396H44.5686V132.396ZM29.4724 123.127L34.6959 128.322L54.4413 108.47L49.2179 103.275L29.4724 123.127ZM24.2429 117.926L29.4724 123.127L49.2179 103.275L43.9883 98.0732L24.2429 117.926ZM19.0073 112.718L24.2429 117.926L43.9883 98.0732L38.7527 92.8658L19.0073 112.718ZM14.88 54.5556V102.792H42.88V54.5556H14.88Z" fill="black" mask="url(#path-1-outside-1_8_97)"/>
<mask id="path-3-outside-2_8_97" maskUnits="userSpaceOnUse" x="4" y="4" width="75" height="125" fill="black">
<rect fill="white" x="4" y="4" width="75" height="125"/>
<path fill-rule="evenodd" clip-rule="evenodd" d="M28.88 54.5556L24.4824 50.1581L19.2443 44.9201L14 39.676V19.96L51.696 15L56.9184 20.2585L62.1346 25.5108L67.3448 30.7571L68.5827 38.1841L67.3448 50.5625V118.396H44.5686L39.3451 113.201L34.1156 107.999L28.88 102.792V54.5556Z"/>
</mask>
<path fill-rule="evenodd" clip-rule="evenodd" d="M28.88 54.5556L24.4824 50.1581L19.2443 44.9201L14 39.676V19.96L51.696 15L56.9184 20.2585L62.1346 25.5108L67.3448 30.7571L68.5827 38.1841L67.3448 50.5625V118.396H44.5686L39.3451 113.201L34.1156 107.999L28.88 102.792V54.5556Z" fill="url(#paint1_linear_8_97)"/>
<path d="M24.4824 50.1581L17.4115 57.2293L17.4115 57.2293L24.4824 50.1581ZM28.88 54.5556H38.88V50.4134L35.951 47.4844L28.88 54.5556ZM19.2443 44.9201L26.3152 37.849L26.3152 37.849L19.2443 44.9201ZM14 39.676H4V43.8182L6.92903 46.7472L14 39.676ZM14 19.96L12.6955 10.0455L4 11.1896L4 19.96H14ZM51.696 15L58.7914 7.95334L55.3016 4.43939L50.3915 5.08546L51.696 15ZM56.9184 20.2585L64.0138 13.2118L64.0137 13.2118L56.9184 20.2585ZM62.1346 25.5108L55.0392 32.5575L55.0392 32.5575L62.1346 25.5108ZM67.3448 30.7571L77.2088 29.1131L76.6851 25.9708L74.4402 23.7104L67.3448 30.7571ZM68.5827 38.1841L78.533 39.1791L78.6656 37.8539L78.4466 36.5401L68.5827 38.1841ZM67.3448 50.5625L57.3945 49.5675L57.3448 50.0638V50.5625H67.3448ZM67.3448 118.396V128.396H77.3448V118.396H67.3448ZM44.5686 118.396L37.5166 125.486L40.4423 128.396H44.5686V118.396ZM39.3451 113.201L32.2932 120.291L32.2932 120.291L39.3451 113.201ZM34.1156 107.999L41.1676 100.909L41.1676 100.909L34.1156 107.999ZM28.88 102.792H18.88V106.95L21.828 109.882L28.88 102.792ZM17.4115 57.2293L21.809 61.6268L35.951 47.4844L31.5534 43.087L17.4115 57.2293ZM12.1733 51.9913L17.4115 57.2293L31.5534 43.087L26.3152 37.849L12.1733 51.9913ZM6.92903 46.7472L12.1733 51.9913L26.3152 37.849L21.071 32.6048L6.92903 46.7472ZM4 19.96V39.676H24V19.96H4ZM50.3915 5.08546L12.6955 10.0455L15.3045 29.8745L53.0005 24.9145L50.3915 5.08546ZM64.0137 13.2118L58.7914 7.95334L44.6006 22.0467L49.823 27.3051L64.0137 13.2118ZM69.23 18.4642L64.0138 13.2118L49.8229 27.3051L55.0392 32.5575L69.23 18.4642ZM74.4402 23.7104L69.23 18.4642L55.0392 32.5575L60.2494 37.8037L74.4402 23.7104ZM78.4466 36.5401L77.2088 29.1131L57.4809 32.4011L58.7187 39.8281L78.4466 36.5401ZM77.2952 51.5575L78.533 39.1791L58.6323 37.1891L57.3945 49.5675L77.2952 51.5575ZM77.3448 118.396V50.5625H57.3448V118.396H77.3448ZM44.5686 128.396H67.3448V108.396H44.5686V128.396ZM32.2932 120.291L37.5166 125.486L51.6205 111.306L46.3971 106.111L32.2932 120.291ZM27.0637 115.09L32.2932 120.291L46.3971 106.111L41.1676 100.909L27.0637 115.09ZM21.828 109.882L27.0637 115.09L41.1676 100.909L35.932 95.7019L21.828 109.882ZM18.88 54.5556V102.792H38.88V54.5556H18.88Z" fill="#FFCC47" mask="url(#path-3-outside-2_8_97)"/>
<mask id="path-5-inside-3_8_97" fill="white">
<path fill-rule="evenodd" clip-rule="evenodd" d="M28.88 54.5556L24.4824 50.1581L19.2443 44.9201L14 39.676V19.96L51.696 15L56.9184 20.2585L62.1346 25.5108L67.3448 30.7571L68.5827 38.1841L67.3448 50.5625V118.396H44.5686L39.3451 113.201L34.1156 107.999L28.88 102.792V54.5556Z"/>
</mask>
<path fill-rule="evenodd" clip-rule="evenodd" d="M28.88 54.5556L24.4824 50.1581L19.2443 44.9201L14 39.676V19.96L51.696 15L56.9184 20.2585L62.1346 25.5108L67.3448 30.7571L68.5827 38.1841L67.3448 50.5625V118.396H44.5686L39.3451 113.201L34.1156 107.999L28.88 102.792V54.5556Z" fill="url(#paint2_linear_8_97)"/>
<path d="M24.4824 50.1581L22.3611 52.2795L22.3611 52.2795L24.4824 50.1581ZM28.88 54.5556H31.88V53.3129L31.0013 52.4342L28.88 54.5556ZM19.2443 44.9201L21.3656 42.7988L21.3656 42.7988L19.2443 44.9201ZM14 39.676H11V40.9187L11.8787 41.7973L14 39.676ZM14 19.96L13.6086 16.9856L11 17.3289V19.96H14ZM51.696 15L53.8246 12.886L52.7777 11.8318L51.3046 12.0256L51.696 15ZM56.9184 20.2585L59.047 18.1445L59.047 18.1445L56.9184 20.2585ZM62.1346 25.5108L60.006 27.6248L60.006 27.6248L62.1346 25.5108ZM67.3448 30.7571L70.304 30.2639L70.1469 29.3212L69.4735 28.6431L67.3448 30.7571ZM68.5827 38.1841L71.5678 38.4826L71.6075 38.085L71.5419 37.6909L68.5827 38.1841ZM67.3448 50.5625L64.3597 50.264L64.3448 50.4129V50.5625H67.3448ZM67.3448 118.396V121.396H70.3448V118.396H67.3448ZM44.5686 118.396L42.453 120.523L43.3307 121.396H44.5686V118.396ZM39.3451 113.201L37.2296 115.328L37.2296 115.328L39.3451 113.201ZM34.1156 107.999L36.2312 105.872L36.2312 105.872L34.1156 107.999ZM28.88 102.792H25.88V104.039L26.7644 104.919L28.88 102.792ZM22.3611 52.2795L26.7587 56.6769L31.0013 52.4342L26.6037 48.0368L22.3611 52.2795ZM17.123 47.0415L22.3611 52.2795L26.6037 48.0368L21.3656 42.7988L17.123 47.0415ZM11.8787 41.7973L17.123 47.0415L21.3656 42.7988L16.1213 37.5546L11.8787 41.7973ZM11 19.96V39.676H17V19.96H11ZM51.3046 12.0256L13.6086 16.9856L14.3914 22.9344L52.0874 17.9744L51.3046 12.0256ZM59.047 18.1445L53.8246 12.886L49.5674 17.114L54.7897 22.3725L59.047 18.1445ZM64.2632 23.3968L59.047 18.1445L54.7897 22.3725L60.006 27.6248L64.2632 23.3968ZM69.4735 28.6431L64.2632 23.3968L60.006 27.6248L65.2162 32.8711L69.4735 28.6431ZM71.5419 37.6909L70.304 30.2639L64.3857 31.2503L65.6235 38.6773L71.5419 37.6909ZM70.33 50.861L71.5678 38.4826L65.5976 37.8856L64.3597 50.264L70.33 50.861ZM70.3448 118.396V50.5625H64.3448V118.396H70.3448ZM44.5686 121.396H67.3448V115.396H44.5686V121.396ZM37.2296 115.328L42.453 120.523L46.6842 116.269L41.4607 111.074L37.2296 115.328ZM32 110.126L37.2296 115.328L41.4607 111.074L36.2312 105.872L32 110.126ZM26.7644 104.919L32 110.126L36.2312 105.872L30.9956 100.665L26.7644 104.919ZM25.88 54.5556V102.792H31.88V54.5556H25.88Z" fill="black" mask="url(#path-5-inside-3_8_97)"/>
<path d="M50.196 34.84V101.292H30.38V39.676V38.176H28.88H15.5V21.2756L50.4547 16.6763L51.4236 22.4895L50.2034 34.6907L50.196 34.7652V34.84Z" fill="white" stroke="black" stroke-width="3"/>
<defs>
<linearGradient id="paint0_linear_8_97" x1="14" y1="15" x2="105.5" y2="77" gradientUnits="userSpaceOnUse">
<stop stop-color="#FA1EFF"/>
<stop offset="1" stop-color="#FABE25"/>
</linearGradient>
<linearGradient id="paint1_linear_8_97" x1="14" y1="15" x2="105.5" y2="77" gradientUnits="userSpaceOnUse">
<stop stop-color="#FA1EFF"/>
<stop offset="1" stop-color="#FABE25"/>
</linearGradient>
<linearGradient id="paint2_linear_8_97" x1="14" y1="15" x2="105.5" y2="77" gradientUnits="userSpaceOnUse">
<stop stop-color="#FA1EFF"/>
<stop offset="1" stop-color="#FABE25"/>
</linearGradient>
</defs>
</svg>
