<svg width="125" height="132" viewBox="0 0 125 132" fill="none" xmlns="http://www.w3.org/2000/svg">
<g id="3Dtext">
<path id="Intersect (Stroke)" fill-rule="evenodd" clip-rule="evenodd" d="M122.06 94.8083C122.021 95.1379 121.969 95.4658 121.903 95.791L121.508 97.7441C121.439 98.0813 121.357 98.4154 121.26 98.7454L120.706 100.63C120.607 100.967 120.493 101.3 120.365 101.627L119.653 103.442C119.524 103.772 119.38 104.095 119.223 104.412L118.353 106.159C118.196 106.473 118.026 106.78 117.843 107.079L116.815 108.756C116.636 109.048 116.445 109.332 116.242 109.608L115.056 111.217C114.86 111.482 114.654 111.739 114.438 111.987L113.093 113.527C112.887 113.763 112.672 113.991 112.449 114.21L110.946 115.682C110.736 115.888 110.518 116.086 110.293 116.276L108.633 117.679C108.423 117.856 108.207 118.025 107.986 118.188L106.167 119.522C105.966 119.67 105.759 119.811 105.549 119.946L103.607 121.192C103.407 121.32 103.202 121.443 102.994 121.56L100.965 122.697C100.761 122.811 100.554 122.919 100.344 123.021L98.2267 124.05C98.0222 124.15 97.8149 124.243 97.6051 124.331L95.4002 125.251C95.1971 125.336 94.9918 125.415 94.7843 125.489L92.4917 126.301C92.2921 126.372 92.0906 126.437 91.8875 126.498L89.5072 127.202C89.3126 127.259 89.1166 127.312 88.9194 127.359L86.4514 127.955C86.2632 128 86.074 128.041 85.8838 128.078L83.3282 128.565C83.1474 128.599 82.9659 128.63 82.7837 128.656L80.1404 129.035C79.9676 129.06 79.7944 129.081 79.6208 129.098L76.8898 129.369C76.7256 129.385 76.5611 129.398 76.3964 129.407L73.5777 129.57C73.4222 129.579 73.2665 129.585 73.1107 129.588L70.2044 129.642C70.0883 129.644 69.9723 129.644 69.8562 129.643L68.1181 129.625C68.0328 129.624 67.9475 129.623 67.8622 129.62L66.155 129.566C66.0667 129.563 65.9785 129.559 65.8902 129.554L64.214 129.464C64.1227 129.459 64.0315 129.453 63.9403 129.446L62.295 129.32C62.2007 129.313 62.1065 129.304 62.0124 129.295L60.3981 129.132C60.3007 129.123 60.2035 129.112 60.1064 129.099L58.523 128.901C58.4227 128.888 58.3226 128.874 58.2227 128.859L56.6702 128.625C56.567 128.609 56.464 128.592 56.3611 128.574L54.8396 128.303C54.7336 128.284 54.6279 128.264 54.5224 128.242L53.0318 127.935C52.9231 127.913 52.8147 127.889 52.7067 127.864L51.2471 127.521C51.1358 127.494 51.0249 127.467 50.9144 127.437L49.4857 127.058C49.3721 127.028 49.259 126.996 49.1464 126.963L47.7486 126.548C47.6265 126.511 47.505 126.473 47.3841 126.433L46.0483 125.989C45.9487 125.956 45.8495 125.922 45.7508 125.886L44.4665 125.422C44.3616 125.384 44.2572 125.345 44.1534 125.304L42.9207 124.819C42.8104 124.776 42.7006 124.731 42.5916 124.684L41.4105 124.179C41.2947 124.129 41.1796 124.078 41.0654 124.024L39.9359 123.498C39.8144 123.442 39.6938 123.383 39.5742 123.323L38.4963 122.776C38.3693 122.711 38.2436 122.645 38.119 122.576L37.0926 122.009C36.9603 121.935 36.8294 121.86 36.7 121.782L35.7252 121.194C35.5879 121.111 35.4524 121.025 35.3185 120.937L34.3953 120.329C34.2535 120.235 34.1138 120.139 33.9761 120.039L33.1045 119.41C32.959 119.305 32.8159 119.197 32.6753 119.085L31.8552 118.436C31.707 118.318 31.5615 118.197 31.419 118.073L30.6505 117.402C30.5116 117.281 30.3754 117.157 30.2422 117.029L28.8385 115.686C28.7859 115.635 28.7337 115.584 28.682 115.533L12.9439 99.9106C12.8611 99.8284 12.7794 99.745 12.6991 99.6604L11.4151 98.3093C11.2728 98.1595 11.1343 98.0061 10.9999 97.8491L9.83829 96.4929C9.69203 96.3221 9.5506 96.1473 9.41416 95.9686L8.3748 94.6072C8.22671 94.4132 8.08458 94.2148 7.9486 94.0121L7.03152 92.6455C6.88461 92.4266 6.74496 92.2029 6.61278 91.9748L5.81797 90.6031C5.67599 90.358 5.54273 90.108 5.41844 89.8535L4.74591 88.4766C4.61343 88.2054 4.49123 87.9293 4.37958 87.6488L3.82933 86.2667C3.71146 85.9707 3.60543 85.67 3.51149 85.3655L3.08352 83.9783C2.98549 83.6605 2.9007 83.3388 2.82939 83.014L2.5237 81.6216C2.45025 81.287 2.39116 80.9494 2.34658 80.6098L2.16317 79.2122C2.11791 78.8674 2.08766 78.5207 2.07252 78.1733L2.01138 76.7705C1.99889 76.4839 1.99668 76.197 2.00476 75.9102L2.00992 75.7268C2.01652 75.4925 2.02998 75.2584 2.05029 75.0248L2.0658 74.8466C2.08708 74.6019 2.11587 74.3579 2.15213 74.1149L2.17797 73.9418C2.21575 73.6887 2.26163 73.4368 2.31553 73.1865L2.3517 73.0186C2.40741 72.76 2.47165 72.5033 2.54433 72.2489L2.59083 72.0861C2.66541 71.8251 2.74883 71.5666 2.84094 71.3112L2.89777 71.1537C2.9913 70.8943 3.09373 70.6383 3.20489 70.3861L3.27206 70.2337C3.38405 69.9795 3.50482 69.7293 3.63417 69.4836L3.71167 69.3363C3.84059 69.0914 3.97794 68.851 4.12348 68.6156L4.21131 68.4735C4.35514 68.2408 4.50687 68.0131 4.66625 67.7908L4.76442 67.6539C4.92031 67.4365 5.08343 67.2244 5.2535 67.0179L5.362 66.8861C5.52704 66.6857 5.69855 66.4907 5.87624 66.3014L5.99507 66.1748C6.15596 66.0034 6.32185 65.8368 6.49253 65.6752L6.63892 65.5365C6.80368 65.3805 6.97284 65.2292 7.14619 65.0827L7.29602 64.9561C7.47869 64.8018 7.66593 64.653 7.8575 64.5099L8.01078 64.3953C8.21145 64.2454 8.41678 64.1018 8.62644 63.9647L8.78317 63.8622C9.00132 63.7195 9.22407 63.584 9.45105 63.4559L9.61121 63.3655C9.84552 63.2332 10.0842 63.1089 10.3269 62.9926L10.4905 62.9143C10.7389 62.7953 10.9913 62.685 11.2472 62.5834L11.4143 62.5171C11.6736 62.4141 11.9365 62.3203 12.2024 62.2357L12.3729 62.1814C12.6401 62.0964 12.9102 62.0207 13.1827 61.9546L13.3567 61.9124C13.6276 61.8467 13.9008 61.7905 14.1756 61.7438L14.353 61.7136C14.6236 61.6677 14.8956 61.631 15.1687 61.6037L15.3496 61.5856C15.6162 61.5589 15.8836 61.5412 16.1514 61.5324L16.3357 61.5264C16.4664 61.5221 16.5972 61.52 16.728 61.52H23.576V57.3933L11.845 45.6795C11.7607 45.5954 11.6778 45.5101 11.5961 45.4235L11.4376 45.2556C11.2725 45.0805 11.1126 44.9006 10.9582 44.7159L10.8136 44.5428C10.6524 44.3499 10.4973 44.1521 10.3485 43.9494L10.2176 43.7712C10.0634 43.5612 9.91607 43.3462 9.77586 43.1266L9.65875 42.9432C9.51453 42.7173 9.37793 42.4867 9.24916 42.2517L9.14583 42.0631C9.01454 41.8235 8.89147 41.5795 8.77684 41.3315L8.68728 41.1378C8.57151 40.8873 8.46441 40.6329 8.36618 40.375L8.2904 40.1761C8.19206 39.918 8.10267 39.6565 8.02238 39.3922L7.96038 39.1882C7.88079 38.9262 7.81019 38.6616 7.74871 38.3948L7.70049 38.1855C7.64012 37.9235 7.58857 37.6596 7.54592 37.3942L7.51148 37.1798C7.46994 36.9212 7.43688 36.6614 7.41234 36.4007L7.39168 36.1811C7.36799 35.9294 7.35227 35.6771 7.34452 35.4244L7.33763 35.1997C7.33388 35.0772 7.332 34.9546 7.332 34.832V17.348C7.332 17.2254 7.33388 17.1028 7.33763 16.9803L7.34452 16.7556C7.35227 16.5029 7.36799 16.2506 7.39167 15.999L7.41234 15.7794C7.43687 15.5186 7.46994 15.2588 7.51148 15.0002L7.54592 14.7858C7.58857 14.5204 7.64012 14.2564 7.7005 13.9945L7.74872 13.7852C7.8102 13.5184 7.8808 13.2538 7.96039 12.9918L8.02239 12.7877C8.10267 12.5235 8.19206 12.262 8.29039 12.0039L8.36617 11.805C8.4644 11.5472 8.5715 11.2928 8.68727 11.0423L8.77682 10.8485C8.89146 10.6005 9.01453 10.3565 9.14583 10.1169L9.24916 9.92829C9.37794 9.69327 9.51455 9.46262 9.65878 9.23675L9.77589 9.05333C9.9161 8.83374 10.0634 8.61877 10.2176 8.40876L10.3485 8.23051C10.4973 8.02794 10.6524 7.83008 10.8135 7.63725L10.9582 7.46416C11.1126 7.2795 11.2724 7.09952 11.4376 6.92447L11.596 6.75655C11.7554 6.58768 11.9196 6.42347 12.0885 6.26413L12.2564 6.10568C12.4315 5.94048 12.6115 5.78058 12.7962 5.62621L12.9692 5.48154C13.1621 5.32032 13.36 5.16521 13.5626 5.01643L13.7409 4.88554C13.9509 4.73135 14.1658 4.58403 14.3854 4.44383L14.5688 4.32672C14.7946 4.18255 15.0252 4.04599 15.2601 3.91725L15.4487 3.81392C15.6884 3.6826 15.9324 3.55951 16.1805 3.44486L16.3742 3.3553C16.6247 3.23952 16.8791 3.13241 17.137 3.03417L17.3359 2.95839C17.594 2.86006 17.8555 2.77067 18.1197 2.69038L18.3238 2.62838C18.5858 2.54879 18.8504 2.47819 19.1173 2.41671L19.3265 2.36848C19.5885 2.3081 19.8525 2.25654 20.118 2.21389L20.3324 2.17945C20.5909 2.13794 20.8506 2.10489 21.1112 2.08036L21.3307 2.05969C21.5825 2.036 21.8349 2.02027 22.0876 2.01252L22.3123 2.00563C22.4349 2.00188 22.5574 2 22.68 2H86.168C86.2906 2 86.4132 2.00188 86.5357 2.00563L86.7604 2.01252C87.0131 2.02027 87.2655 2.036 87.5172 2.05969L87.7368 2.08036C87.9974 2.10489 88.2572 2.13794 88.5156 2.17946L88.73 2.2139C88.9955 2.25655 89.2595 2.3081 89.5215 2.36848L89.7308 2.41671C89.9975 2.47819 90.2622 2.54878 90.5241 2.62837L90.7282 2.69037C90.9925 2.77067 91.254 2.86007 91.5121 2.95841L91.7111 3.03419C91.9689 3.13243 92.2233 3.23953 92.4738 3.3553L92.6675 3.44486C92.9156 3.55951 93.1597 3.6826 93.3993 3.81392L93.5879 3.91725C93.8228 4.04599 94.0534 4.18255 94.2792 4.32672L94.4626 4.44383C94.6822 4.58405 94.8972 4.73139 95.1072 4.88561L95.2855 5.0165C95.488 5.16523 95.6858 5.3203 95.8787 5.48145L96.0517 5.62612C96.2365 5.78052 96.4165 5.94045 96.5916 6.10568L96.7595 6.26413C96.8564 6.35554 96.9518 6.44855 97.0455 6.54314L112.667 22.2987C112.736 22.3689 112.805 22.44 112.873 22.5119L113.031 22.6795C113.197 22.8548 113.357 23.035 113.511 23.2199L113.656 23.3927C113.816 23.5853 113.971 23.7829 114.12 23.9852L114.251 24.1632C114.405 24.3734 114.552 24.5886 114.693 24.8084L114.81 24.9915C114.954 25.2171 115.09 25.4474 115.219 25.6821L115.322 25.8704C115.453 26.1101 115.576 26.3542 115.691 26.6024L115.781 26.7958C115.896 27.0464 116.004 27.301 116.102 27.5591L116.178 27.7577C116.276 28.0156 116.365 28.2768 116.445 28.5408L116.507 28.7445C116.587 29.0067 116.657 29.2714 116.719 29.5384L116.767 29.7473C116.827 30.0092 116.879 30.2731 116.922 30.5385L116.956 30.7525C116.998 31.0109 117.031 31.2706 117.055 31.5311L117.076 31.7503C117.099 32.0022 117.115 32.2547 117.123 32.5076L117.13 32.732C117.134 32.8544 117.135 32.9769 117.135 33.0995V48.82C117.135 48.9507 117.133 49.0813 117.129 49.2119L117.112 49.738C117.103 50.014 117.084 50.2895 117.056 50.5642L117.005 51.0697C116.975 51.3634 116.934 51.656 116.882 51.9467L116.796 52.4315C116.742 52.7395 116.675 53.0452 116.597 53.3479L116.476 53.8121C116.394 54.1295 116.299 54.4435 116.191 54.7531L116.036 55.1966C115.924 55.5171 115.799 55.8326 115.66 56.1425L115.471 56.5654C115.33 56.8817 115.175 57.1918 115.006 57.4947L114.783 57.897C114.614 58.2017 114.431 58.4989 114.236 58.7878L113.978 59.1694C113.785 59.4555 113.579 59.733 113.362 60.0014L113.07 60.3624C112.858 60.6244 112.635 60.8774 112.401 61.1206L112.075 61.461C111.85 61.6952 111.616 61.9202 111.373 62.1355L111.256 62.2389L111.379 62.362L111.41 62.3939L113.422 64.4286C113.785 64.7957 114.123 65.1858 114.436 65.5965L116.138 67.8324C116.457 68.2511 116.748 68.6903 117.009 69.1472L118.401 71.5842C118.659 72.0344 118.886 72.5007 119.083 72.9803L120.166 75.6185C120.354 76.0758 120.514 76.5443 120.644 77.0213L121.417 79.8606C121.538 80.3027 121.633 80.7513 121.702 81.2042L122.166 84.2447C122.229 84.6553 122.27 85.0688 122.29 85.4837L122.445 88.7253C122.461 89.0669 122.463 89.4092 122.45 89.751L122.37 91.8416C122.359 92.1574 122.334 92.4726 122.297 92.7865L122.06 94.8083ZM92.6811 60.5944L102.66 53.7714L103.055 53.4722L103.416 53.1525L103.743 52.8121L104.035 52.451L104.293 52.0694L104.517 51.6671L104.706 51.2441L104.86 50.8006L104.981 50.3364L105.067 49.8516L105.118 49.3461L105.135 48.82V33.0995L105.129 32.8751L105.108 32.6559L105.074 32.4419L105.025 32.233L104.964 32.0292L104.888 31.8307L104.798 31.6373L104.695 31.449L104.578 31.2659L104.448 31.088L104.303 30.9152L104.145 30.7476L88.524 14.992L88.3561 14.8336L88.183 14.6889L88.0048 14.558L87.8213 14.4409L87.6328 14.3376L87.439 14.248L87.2401 14.1722L87.036 14.1102L86.8268 14.062L86.6123 14.0276L86.3928 14.0069L86.168 14H22.68L22.4553 14.0069L22.2357 14.0276L22.0213 14.062L21.812 14.1102L21.6079 14.1722L21.409 14.248L21.2153 14.3376L21.0267 14.4409L20.8433 14.558L20.665 14.6889L20.4919 14.8336L20.324 14.992L20.1656 15.1599L20.0209 15.333L19.89 15.5113L19.7729 15.6947L19.6696 15.8833L19.58 16.077L19.5042 16.2759L19.4422 16.48L19.394 16.6893L19.3596 16.9037L19.3389 17.1233L19.332 17.348V34.832L19.3389 35.0568L19.3596 35.2763L19.394 35.4908L19.4422 35.7L19.5042 35.9041L19.58 36.103L19.6696 36.2968L19.7729 36.4853L19.89 36.6688L20.0209 36.847L20.1656 37.0201L20.324 37.188L35.5803 52.4219L35.576 52.564V62.608L35.5829 62.8328L35.6036 63.0523L35.638 63.2668L35.6862 63.476L35.7482 63.6801L35.824 63.879L35.9136 64.0728L36.0169 64.2613L36.134 64.4448L36.2649 64.623L36.4096 64.7961L36.568 64.964L48.994 77.3558L48.5788 77.2245L47.9898 76.992L47.449 76.7285L46.9564 76.434L46.5121 76.1085L46.116 75.752L45.744 75.3955L45.372 75.07L45 74.7755L44.628 74.512L44.256 74.2795L43.884 74.078L43.512 73.9075L43.14 73.768L42.768 73.6595L42.396 73.582L42.024 73.5355L41.652 73.52H16.728L16.5437 73.526L16.3629 73.5441L16.1855 73.5742L16.0116 73.6164L15.8411 73.6707L15.674 73.737L15.5104 73.8154L15.3502 73.9058L15.1935 74.0083L15.0402 74.1228L14.8904 74.2494L14.744 74.388L14.6252 74.5146L14.5167 74.6463L14.4185 74.7832L14.3307 74.9253L14.2532 75.0726L14.186 75.225L14.1292 75.3826L14.0827 75.5453L14.0465 75.7133L14.0207 75.8863L14.0052 76.0646L14 76.248L14.0611 77.6508L14.2446 79.0483L14.5503 80.4408L14.9782 81.828L15.5285 83.2101L16.201 84.587L16.9958 85.9588L17.9129 87.3253L18.9523 88.6868L20.1139 90.043L21.3978 91.3941L37.1359 107.017L38.5397 108.36L39.3082 109.031L40.1283 109.68L40.9999 110.31L41.9231 110.918L42.8979 111.506L43.9243 112.074L45.0022 112.62L46.1318 113.146L47.3129 113.652L48.5456 114.137L49.8298 114.601L51.1656 115.044L52.5634 115.46L53.9921 115.839L55.4517 116.182L56.9422 116.489L58.4637 116.759L60.0162 116.994L61.5996 117.193L63.214 117.355L64.8593 117.481L66.5355 117.572L68.2427 117.626L69.9808 117.644L72.8872 117.59L75.7058 117.427L78.4368 117.157L81.0801 116.777L83.6357 116.29L86.1037 115.694L88.4839 114.99L90.7765 114.178L92.9814 113.257L95.0986 112.228L97.1282 111.091L99.07 109.846L100.889 108.511L102.55 107.109L104.052 105.637L105.397 104.096L106.583 102.487L107.611 100.809L108.481 99.0626L109.193 97.2471L109.746 95.3628L110.142 93.4098L110.379 91.388L110.458 89.2974L110.303 86.0558L109.839 83.0153L109.066 80.176L107.982 77.5379L106.59 75.1009L104.888 72.8651L102.876 70.8304L92.6811 60.5944Z" fill="#FFCC47" stroke="black" stroke-width="4" stroke-linejoin="round"/>
<path id="Intersect" d="M110.379 91.388L110.142 93.4098L109.746 95.3628L109.193 97.2471L108.481 99.0626L107.611 100.809L106.583 102.487L105.397 104.096L104.052 105.637L102.55 107.109L100.889 108.511L99.07 109.846L97.1282 111.091L95.0986 112.228L92.9814 113.257L90.7765 114.178L88.4839 114.99L86.1037 115.694L83.6357 116.29L81.0801 116.777L78.4368 117.157L75.7058 117.427L72.8872 117.59L69.9808 117.644L68.2427 117.626L66.5355 117.572L64.8593 117.481L63.214 117.355L61.5996 117.193L60.0162 116.994L58.4637 116.759L56.9422 116.489L55.4517 116.182L53.9921 115.839L52.5634 115.46L51.1656 115.044L49.8298 114.601L48.5456 114.137L47.3129 113.652L46.1318 113.146L45.0022 112.62L43.9243 112.074L42.8979 111.506L41.9231 110.918L40.9999 110.31L40.1283 109.68L39.3082 109.031L38.5397 108.36L37.1359 107.017L21.3978 91.3941L20.1139 90.043L18.9523 88.6868L17.9129 87.3253L16.9958 85.9588L16.201 84.587L15.5285 83.2101L14.9782 81.828L14.5503 80.4408L14.2446 79.0483L14.0611 77.6508L14 76.248L14.0052 76.0646L14.0207 75.8863L14.0465 75.7133L14.0827 75.5453L14.1292 75.3826L14.186 75.225L14.2532 75.0726L14.3307 74.9253L14.4185 74.7833L14.5167 74.6463L14.6252 74.5146L14.744 74.388L14.8904 74.2494L15.0402 74.1228L15.1935 74.0083L15.3502 73.9058L15.5104 73.8154L15.674 73.737L15.8411 73.6707L16.0116 73.6164L16.1855 73.5743L16.3629 73.5441L16.5437 73.526L16.728 73.52H41.652L42.024 73.5355L42.396 73.582L42.768 73.6595L43.14 73.768L43.512 73.9075L43.884 74.078L44.256 74.2795L44.628 74.512L45 74.7755L45.372 75.07L45.744 75.3955L46.116 75.752L46.5121 76.1085L46.9564 76.434L47.449 76.7285L47.9898 76.992L48.5788 77.2245L48.994 77.3558L36.568 64.964L36.4096 64.7961L36.2649 64.623L36.134 64.4448L36.0169 64.2613L35.9136 64.0728L35.824 63.879L35.7482 63.6801L35.6862 63.476L35.638 63.2668L35.6036 63.0523L35.5829 62.8328L35.576 62.608V52.564L35.5803 52.4219L20.324 37.188L20.1656 37.0201L20.0209 36.847L19.89 36.6688L19.7729 36.4853L19.6696 36.2968L19.58 36.103L19.5042 35.9041L19.4422 35.7L19.394 35.4908L19.3596 35.2763L19.3389 35.0568L19.332 34.832V17.348L19.3389 17.1233L19.3596 16.9037L19.394 16.6893L19.4422 16.48L19.5042 16.2759L19.58 16.077L19.6696 15.8833L19.7729 15.6947L19.89 15.5113L20.0209 15.333L20.1656 15.1599L20.324 14.992L20.4919 14.8336L20.665 14.6889L20.8433 14.558L21.0267 14.4409L21.2153 14.3376L21.409 14.248L21.6079 14.1722L21.812 14.1102L22.0213 14.062L22.2357 14.0276L22.4553 14.0069L22.68 14H86.168L86.3928 14.0069L86.6123 14.0276L86.8268 14.062L87.036 14.1102L87.2401 14.1722L87.439 14.248L87.6328 14.3376L87.8213 14.4409L88.0048 14.558L88.183 14.6889L88.3561 14.8336L88.524 14.992L104.145 30.7476L104.303 30.9152L104.448 31.088L104.578 31.2659L104.695 31.449L104.798 31.6373L104.888 31.8307L104.964 32.0292L105.025 32.233L105.074 32.4419L105.108 32.6559L105.129 32.8751L105.135 33.0995V48.82L105.118 49.3461L105.067 49.8516L104.981 50.3364L104.86 50.8006L104.706 51.2441L104.517 51.6671L104.293 52.0694L104.035 52.451L103.743 52.8121L103.416 53.1525L103.055 53.4722L102.66 53.7714L92.6811 60.5944L102.876 70.8304L104.888 72.8651L106.59 75.1009L107.982 77.5379L109.066 80.176L109.839 83.0153L110.303 86.0558L110.458 89.2974L110.379 91.388Z" fill="url(#paint0_linear_1_2605)" stroke="black" stroke-width="4" stroke-linejoin="round"/>
<path id="3" d="M94.848 73.644C94.848 82.1587 91.0453 89.02 83.44 94.228C75.8347 99.436 66.1213 102.04 54.3 102.04C47.2733 102.04 40.9907 101.172 35.452 99.436C29.996 97.7 25.78 95.468 22.804 92.74C16.9347 87.3667 14 81.8693 14 76.248C14 75.504 14.248 74.884 14.744 74.388C15.3227 73.8093 15.984 73.52 16.728 73.52H41.652C43.14 73.52 44.628 74.264 46.116 75.752C47.604 77.24 50.2493 77.984 54.052 77.984C59.756 77.984 62.608 75.7933 62.608 71.412C62.608 67.7747 59.7147 65.956 53.928 65.956H38.924C38.0147 65.956 37.2293 65.6253 36.568 64.964C35.9067 64.3027 35.576 63.5173 35.576 62.608V52.564C35.576 50.2493 36.4027 48.596 38.056 47.604L55.292 38.18H22.68C21.7707 38.18 20.9853 37.8493 20.324 37.188C19.6627 36.5267 19.332 35.7413 19.332 34.832V17.348C19.332 16.4387 19.6627 15.6533 20.324 14.992C20.9853 14.3307 21.7707 14 22.68 14H86.168C87.0773 14 87.8627 14.3307 88.524 14.992C89.1853 15.6533 89.516 16.4387 89.516 17.348V33.096C89.516 35.2453 88.6893 36.8987 87.036 38.056L72.528 47.976C87.408 51.696 94.848 60.252 94.848 73.644Z" fill="white" stroke="black" stroke-width="4" stroke-linejoin="round"/>
</g>
<defs>
<linearGradient id="paint0_linear_1_2605" x1="14" y1="18.5" x2="62" y2="118" gradientUnits="userSpaceOnUse">
<stop stop-color="#FF2AB6"/>
<stop offset="1" stop-color="#F6574C"/>
</linearGradient>
</defs>
</svg>
